<svg width="369" height="197" viewBox="0 0 369 197" fill="none" xmlns="http://www.w3.org/2000/svg">
<rect y="70.8318" width="115" height="125.168" fill="#AADDD8"/>
<rect x="127" width="115" height="196" fill="#AADDD8"/>
<rect x="254" y="37.8416" width="115" height="158.158" fill="#AADDD8"/>
<path d="M115.5 196.5V68.5C115.5 68.5 109 165.5 104.5 173C100 180.5 94.3 191.3 43.5 196.5H115.5Z" fill="#7CC4C0"/>
<path d="M242 196V68C242 68 235.5 165 231 172.5C226.5 180 220.8 190.8 170 196H242Z" fill="#7CC4C0"/>
<path d="M369 196V68C369 68 362.5 165 358 172.5C353.5 180 347.8 190.8 297 196H369Z" fill="#7CC4C0"/>
</svg>
